<svg xmlns="http://www.w3.org/2000/svg" xmlns:xlink="http://www.w3.org/1999/xlink" width="500" zoomAndPan="magnify" viewBox="0 0 375 374.999991" height="500" preserveAspectRatio="xMidYMid meet" version="1.0"><defs><g/><clipPath id="ac82840c47"><path d="M 126 231 L 183 231 L 183 274.207031 L 126 274.207031 Z M 126 231 " clip-rule="nonzero"/></clipPath><clipPath id="92bf263740"><path d="M 83.066406 141 L 183 141 L 183 237 L 83.066406 237 Z M 83.066406 141 " clip-rule="nonzero"/></clipPath><clipPath id="8b38b1fcc8"><path d="M 191 231 L 249 231 L 249 274.207031 L 191 274.207031 Z M 191 231 " clip-rule="nonzero"/></clipPath><clipPath id="ea6bf27026"><path d="M 191 141 L 291.488281 141 L 291.488281 237 L 191 237 Z M 191 141 " clip-rule="nonzero"/></clipPath><clipPath id="b2a25d9417"><path d="M 185 4.265625 L 189 4.265625 L 189 58 L 185 58 Z M 185 4.265625 " clip-rule="nonzero"/></clipPath><clipPath id="9c4e478a9b"><path d="M 83.066406 141 L 183 141 L 183 237 L 83.066406 237 Z M 83.066406 141 " clip-rule="nonzero"/></clipPath><clipPath id="e091baaf90"><path d="M 126 231 L 183 231 L 183 274.207031 L 126 274.207031 Z M 126 231 " clip-rule="nonzero"/></clipPath><clipPath id="166b1533e3"><path d="M 191 141 L 291.488281 141 L 291.488281 237 L 191 237 Z M 191 141 " clip-rule="nonzero"/></clipPath><clipPath id="f0e05234e7"><path d="M 191 231 L 249 231 L 249 274.207031 L 191 274.207031 Z M 191 231 " clip-rule="nonzero"/></clipPath></defs><path fill="#18bebc" d="M 272.785156 95.726562 L 187.746094 123.894531 L 94.800781 93.09375 L 187.746094 70.707031 L 269.816406 90.472656 L 199.027344 90.472656 C 197.113281 88.183594 192.789062 86.578125 187.746094 86.578125 C 180.941406 86.578125 175.425781 89.492188 175.425781 93.09375 C 175.425781 96.695312 180.941406 99.613281 187.746094 99.613281 C 192.789062 99.613281 197.113281 98.007812 199.027344 95.71875 Z M 272.785156 95.726562 " fill-opacity="1" fill-rule="nonzero"/><path fill="#18bebc" d="M 266.4375 136.113281 L 262.097656 120.988281 C 262.71875 120.578125 263.1875 120.035156 263.5 119.355469 C 263.816406 118.679688 263.929688 117.972656 263.839844 117.234375 C 263.753906 116.492188 263.476562 115.828125 263.015625 115.246094 C 262.550781 114.660156 261.96875 114.242188 261.269531 113.988281 L 261.269531 96.507812 L 258.546875 97.3125 L 258.546875 113.988281 C 257.84375 114.242188 257.265625 114.664062 256.800781 115.246094 C 256.339844 115.832031 256.0625 116.492188 255.976562 117.234375 C 255.890625 117.972656 256.003906 118.683594 256.316406 119.359375 C 256.632812 120.035156 257.097656 120.578125 257.722656 120.988281 L 253.386719 136.113281 C 253.242188 136.621094 253.15625 137.132812 253.132812 137.660156 C 253.105469 138.183594 253.140625 138.703125 253.238281 139.222656 C 253.332031 139.738281 253.488281 140.238281 253.699219 140.71875 C 253.910156 141.199219 254.171875 141.648438 254.488281 142.070312 C 254.804688 142.488281 255.164062 142.867188 255.570312 143.203125 C 255.972656 143.539062 256.410156 143.824219 256.878906 144.058594 C 257.347656 144.292969 257.839844 144.472656 258.351562 144.59375 C 258.863281 144.710938 259.378906 144.773438 259.90625 144.773438 C 260.429688 144.773438 260.949219 144.714844 261.460938 144.59375 C 261.972656 144.472656 262.464844 144.296875 262.933594 144.0625 C 263.40625 143.828125 263.84375 143.542969 264.246094 143.207031 C 264.652344 142.871094 265.011719 142.492188 265.328125 142.074219 C 265.644531 141.652344 265.910156 141.203125 266.121094 140.722656 C 266.335938 140.242188 266.488281 139.742188 266.585938 139.222656 C 266.679688 138.707031 266.714844 138.1875 266.691406 137.660156 C 266.667969 137.136719 266.582031 136.621094 266.4375 136.113281 Z M 266.4375 136.113281 " fill-opacity="1" fill-rule="nonzero"/><path fill="#18bebc" d="M 246.675781 147.242188 L 187.746094 187.992188 L 187.289062 188.308594 L 127.890625 147.242188 L 130.65625 124.140625 L 132.125 111.917969 L 187.746094 130.34375 L 242.472656 112.214844 L 245.355469 136.242188 Z M 246.675781 147.242188 " fill-opacity="1" fill-rule="nonzero"/><path fill="#f15a29" d="M 177.429688 64.164062 L 179.851562 63.578125 L 179.765625 63.121094 C 176.679688 46.964844 173.488281 30.832031 169.984375 14.75 C 172.195312 31.058594 174.707031 47.3125 177.332031 63.546875 C 177.382812 63.757812 177.382812 63.960938 177.429688 64.164062 Z M 177.429688 64.164062 " fill-opacity="1" fill-rule="nonzero"/><path fill="#f15a29" d="M 196.824219 63.933594 C 196.824219 63.800781 196.867188 63.667969 196.890625 63.53125 C 199.515625 47.296875 202.027344 31.042969 204.226562 14.734375 C 200.722656 30.816406 197.53125 46.949219 194.445312 63.105469 C 194.445312 63.183594 194.417969 63.269531 194.398438 63.347656 Z M 196.824219 63.933594 " fill-opacity="1" fill-rule="nonzero"/><path fill="#f15a29" d="M 127.152344 76.273438 C 118.714844 71.636719 110.238281 67.074219 101.722656 62.582031 C 109.355469 67.414062 117.039062 72.167969 124.765625 76.851562 Z M 127.152344 76.273438 " fill-opacity="1" fill-rule="nonzero"/><path fill="#f15a29" d="M 202.695312 65.367188 L 205.125 65.953125 C 210.523438 50.429688 215.816406 34.871094 220.808594 19.203125 C 214.609375 34.425781 208.652344 49.761719 202.800781 65.136719 C 202.769531 65.210938 202.742188 65.292969 202.695312 65.367188 Z M 202.695312 65.367188 " fill-opacity="1" fill-rule="nonzero"/><path fill="#f15a29" d="M 153.429688 69.945312 C 143.652344 58.640625 133.792969 47.402344 123.730469 36.335938 C 132.667969 47.871094 141.746094 59.242188 150.921875 70.546875 Z M 153.429688 69.945312 " fill-opacity="1" fill-rule="nonzero"/><path fill="#f15a29" d="M 142.046875 72.6875 C 131.972656 64.535156 121.816406 56.46875 111.582031 48.496094 C 120.785156 56.882812 130.09375 65.148438 139.496094 73.300781 Z M 142.046875 72.6875 " fill-opacity="1" fill-rule="nonzero"/><path fill="#f15a29" d="M 162.984375 67.644531 C 154.75 53.835938 146.417969 40.074219 137.824219 26.46875 C 145.191406 40.507812 152.816406 54.402344 160.527344 68.238281 Z M 162.984375 67.644531 " fill-opacity="1" fill-rule="nonzero"/><path fill="#f15a29" d="M 169.144531 66.160156 L 171.574219 65.574219 L 171.410156 65.136719 C 165.566406 49.761719 159.625 34.425781 153.386719 19.226562 C 158.390625 34.90625 163.6875 50.472656 169.085938 66.007812 Z M 169.144531 66.160156 " fill-opacity="1" fill-rule="nonzero"/><path fill="#f15a29" d="M 278.082031 112.191406 C 280.625 112.101562 283.160156 112.019531 285.703125 111.917969 C 283.070312 111.8125 280.4375 111.726562 277.804688 111.640625 C 277.902344 111.816406 277.992188 112.007812 278.082031 112.191406 Z M 278.082031 112.191406 " fill-opacity="1" fill-rule="nonzero"/><path fill="#f15a29" d="M 276.765625 96.375 C 279.25 95.847656 281.730469 95.324219 284.214844 94.785156 C 281.730469 95.121094 279.25 95.472656 276.765625 95.828125 Z M 276.765625 96.375 " fill-opacity="1" fill-rule="nonzero"/><path fill="#f15a29" d="M 270.851562 81.785156 C 273.828125 80.585938 276.796875 79.382812 279.753906 78.171875 C 276.355469 79.257812 272.960938 80.359375 269.574219 81.476562 Z M 270.851562 81.785156 " fill-opacity="1" fill-rule="nonzero"/><path fill="#f15a29" d="M 280.089844 128.480469 C 281.464844 128.667969 282.832031 128.867188 284.203125 129.050781 C 282.804688 128.746094 281.398438 128.453125 280 128.15625 Z M 280.089844 128.480469 " fill-opacity="1" fill-rule="nonzero"/><path fill="#f15a29" d="M 249.722656 76.691406 C 257.335938 72.054688 264.925781 67.351562 272.492188 62.582031 C 264.058594 67.015625 255.675781 71.527344 247.339844 76.121094 Z M 249.722656 76.691406 " fill-opacity="1" fill-rule="nonzero"/><path fill="#f15a29" d="M 213.816406 68.042969 C 221.496094 54.269531 229.074219 40.445312 236.40625 26.46875 C 227.847656 40.011719 219.527344 53.703125 211.355469 67.445312 Z M 213.816406 68.042969 " fill-opacity="1" fill-rule="nonzero"/><path fill="#f15a29" d="M 223.445312 70.363281 C 232.574219 59.117188 241.625 47.804688 250.484375 36.335938 C 240.472656 47.339844 230.667969 58.515625 220.9375 69.757812 Z M 223.445312 70.363281 " fill-opacity="1" fill-rule="nonzero"/><path fill="#f15a29" d="M 234.925781 73.125 C 244.238281 65.011719 253.476562 56.800781 262.636719 48.496094 C 252.445312 56.382812 242.351562 64.386719 232.355469 72.515625 Z M 234.925781 73.125 " fill-opacity="1" fill-rule="nonzero"/><path fill="#f15a29" d="M 105.03125 81.605469 C 101.511719 80.449219 97.988281 79.304688 94.460938 78.171875 C 97.539062 79.433594 100.625 80.683594 103.71875 81.921875 Z M 105.03125 81.605469 " fill-opacity="1" fill-rule="nonzero"/><path fill="#f15a29" d="M 121.875 122.472656 C 111.238281 124.570312 100.609375 126.742188 90.011719 129.050781 C 100.574219 127.621094 111.117188 126.074219 121.640625 124.414062 Z M 121.875 122.472656 " fill-opacity="1" fill-rule="nonzero"/><path fill="#f15a29" d="M 123.15625 111.78125 L 120.734375 110.984375 C 109.992188 111.203125 99.253906 111.480469 88.511719 111.917969 C 100.015625 112.378906 111.519531 112.683594 123.023438 112.910156 Z M 123.15625 111.78125 " fill-opacity="1" fill-rule="nonzero"/><path fill="#1c74bb" d="M 182.71875 256.890625 C 158.554688 230.621094 123.070312 220.195312 103.726562 216.285156 C 95.476562 214.621094 89.902344 209.722656 89.902344 204.210938 L 89.902344 186.007812 C 89.902344 186.007812 166.007812 209.285156 182.71875 256.890625 Z M 182.71875 256.890625 " fill-opacity="1" fill-rule="nonzero"/><g clip-path="url(#ac82840c47)"><path fill="#1c74bb" d="M 182.71875 274.148438 C 169.539062 259.816406 150.808594 253.25 138.625 250.34375 C 131.261719 248.585938 126.347656 244.128906 126.347656 239.113281 L 126.347656 231.09375 C 126.347656 231.09375 172.570312 245.253906 182.71875 274.148438 Z M 182.71875 274.148438 " fill-opacity="1" fill-rule="nonzero"/></g><g clip-path="url(#92bf263740)"><path fill="#1c74bb" d="M 182.921875 236.808594 C 158.261719 202.53125 117.222656 186.136719 94.5625 179.371094 L 94.414062 179.332031 C 87.535156 177.226562 83.066406 171.960938 83.066406 166.167969 L 83.066406 141.332031 C 83.066406 141.332031 170.929688 177.535156 182.921875 236.808594 Z M 182.921875 236.808594 " fill-opacity="1" fill-rule="nonzero"/></g><path fill="#1c74bb" d="M 284.660156 186.007812 C 284.660156 186.007812 208.554688 209.28125 191.835938 256.890625 C 216.003906 230.617188 251.488281 220.195312 270.832031 216.285156 C 279.070312 214.621094 284.65625 209.730469 284.65625 204.210938 Z M 284.660156 186.007812 " fill-opacity="1" fill-rule="nonzero"/><g clip-path="url(#8b38b1fcc8)"><path fill="#1c74bb" d="M 248.214844 231.097656 C 248.214844 231.097656 201.992188 245.253906 191.839844 274.148438 C 205.023438 259.816406 223.75 253.25 235.941406 250.34375 C 243.300781 248.585938 248.214844 244.125 248.214844 239.113281 Z M 248.214844 231.097656 " fill-opacity="1" fill-rule="nonzero"/></g><g clip-path="url(#ea6bf27026)"><path fill="#1c74bb" d="M 291.488281 141.335938 L 291.488281 166.171875 C 291.488281 171.964844 287.023438 177.230469 280.164062 179.316406 L 280.011719 179.363281 C 257.339844 186.136719 216.296875 202.496094 191.640625 236.808594 C 203.625 177.535156 291.488281 141.335938 291.488281 141.335938 Z M 291.488281 141.335938 " fill-opacity="1" fill-rule="nonzero"/></g><g clip-path="url(#b2a25d9417)"><path fill="#f15a29" d="M 188.441406 57.371094 L 188.441406 55.914062 C 188.167969 38.71875 187.804688 21.523438 187.105469 4.324219 C 186.394531 22.089844 186.023438 39.851562 185.765625 57.617188 L 188.441406 57.617188 Z M 188.441406 57.371094 " fill-opacity="1" fill-rule="nonzero"/></g><g clip-path="url(#9c4e478a9b)"><path fill="#000000" d="M 182.921875 236.808594 C 158.457031 178.015625 100.480469 163.347656 83.066406 160.207031 L 83.066406 141.332031 C 83.066406 141.332031 170.929688 177.535156 182.921875 236.808594 Z M 182.921875 236.808594 " fill-opacity="0.2" fill-rule="nonzero"/></g><path fill="#000000" d="M 182.71875 256.890625 C 156.871094 210.539062 106.769531 201.09375 89.894531 199.210938 L 89.894531 186.007812 C 89.894531 186.007812 166.007812 209.285156 182.71875 256.890625 Z M 182.71875 256.890625 " fill-opacity="0.2" fill-rule="nonzero"/><g clip-path="url(#e091baaf90)"><path fill="#000000" d="M 182.71875 274.148438 C 169.210938 250.183594 139.902344 241.109375 126.347656 238.105469 L 126.347656 231.09375 C 126.347656 231.09375 172.570312 245.253906 182.71875 274.148438 Z M 182.71875 274.148438 " fill-opacity="0.2" fill-rule="nonzero"/></g><g clip-path="url(#166b1533e3)"><path fill="#000000" d="M 191.640625 236.808594 C 216.097656 178.015625 274.078125 163.347656 291.488281 160.207031 L 291.488281 141.332031 C 291.488281 141.332031 203.625 177.535156 191.640625 236.808594 Z M 191.640625 236.808594 " fill-opacity="0.2" fill-rule="nonzero"/></g><path fill="#000000" d="M 191.839844 256.890625 C 217.6875 210.539062 267.789062 201.09375 284.664062 199.210938 L 284.664062 186.007812 C 284.664062 186.007812 208.554688 209.285156 191.839844 256.890625 Z M 191.839844 256.890625 " fill-opacity="0.2" fill-rule="nonzero"/><g clip-path="url(#f0e05234e7)"><path fill="#000000" d="M 191.839844 274.148438 C 205.347656 250.183594 234.660156 241.109375 248.210938 238.105469 L 248.210938 231.09375 C 248.210938 231.09375 201.992188 245.253906 191.839844 274.148438 Z M 191.839844 274.148438 " fill-opacity="0.2" fill-rule="nonzero"/></g><path fill="#000000" d="M 175.425781 93.113281 C 175.425781 96.714844 180.941406 99.632812 187.746094 99.632812 L 187.746094 123.902344 L 94.800781 93.105469 L 187.746094 70.714844 L 187.746094 86.613281 C 180.941406 86.597656 175.425781 89.511719 175.425781 93.113281 Z M 175.425781 93.113281 " fill-opacity="0.2" fill-rule="nonzero"/><path fill="#000000" d="M 132.125 111.917969 L 187.746094 130.34375 L 187.746094 187.992188 L 187.289062 188.308594 L 127.890625 147.242188 L 130.65625 124.140625 Z M 132.125 111.917969 " fill-opacity="0.2" fill-rule="nonzero"/><g fill="#1c74bb" fill-opacity="1"><g transform="translate(75.667787, 326.908681)"><g><path d="M 0.84375 -7.6875 L 7.828125 -11.0625 C 8.703125 -8.125 10.96875 -6.65625 14.625 -6.65625 C 16.21875 -6.65625 17.535156 -7.1875 18.578125 -8.25 C 19.628906 -9.3125 20.15625 -10.65625 20.15625 -12.28125 C 20.15625 -13.90625 19.644531 -15.238281 18.625 -16.28125 C 17.613281 -17.332031 16.394531 -18.0625 14.96875 -18.46875 C 13.550781 -18.875 11.9375 -19.078125 10.125 -19.078125 C 7.5625 -19.078125 5.359375 -18.671875 3.515625 -17.859375 L 6.75 -38.671875 L 26.484375 -38.671875 L 26.484375 -30.9375 L 14.296875 -30.9375 L 13.453125 -25.546875 C 13.546875 -25.546875 13.71875 -25.550781 13.96875 -25.5625 C 14.21875 -25.582031 14.40625 -25.59375 14.53125 -25.59375 C 16.5 -25.59375 18.285156 -25.375 19.890625 -24.9375 C 21.503906 -24.5 23.019531 -23.796875 24.4375 -22.828125 C 25.863281 -21.859375 26.972656 -20.453125 27.765625 -18.609375 C 28.566406 -16.765625 28.96875 -14.5625 28.96875 -12 C 28.96875 -8.3125 27.613281 -5.269531 24.90625 -2.875 C 22.207031 -0.488281 18.78125 0.703125 14.625 0.703125 C 10.84375 0.703125 7.8125 -0.113281 5.53125 -1.75 C 3.25 -3.394531 1.6875 -5.375 0.84375 -7.6875 Z M 0.84375 -7.6875 "/></g></g></g><g fill="#1c74bb" fill-opacity="1"><g transform="translate(112.506681, 326.908681)"><g><path d="M 27.5625 -21.0625 C 29.8125 -18.613281 30.9375 -15.609375 30.9375 -12.046875 C 30.9375 -8.484375 29.8125 -5.46875 27.5625 -3 C 25.3125 -0.53125 22.453125 0.703125 18.984375 0.703125 C 15.796875 0.703125 13.171875 -0.296875 11.109375 -2.296875 L 11.109375 12.1875 L 2.8125 12.1875 L 2.8125 -24.046875 L 11.015625 -24.046875 L 11.015625 -21.328125 L 11.109375 -21.328125 C 13.171875 -23.609375 15.796875 -24.75 18.984375 -24.75 C 22.453125 -24.75 25.3125 -23.519531 27.5625 -21.0625 Z M 20.5 -7.96875 C 21.582031 -9.03125 22.125 -10.390625 22.125 -12.046875 C 22.125 -13.703125 21.609375 -15.050781 20.578125 -16.09375 C 19.546875 -17.144531 18.1875 -17.671875 16.5 -17.671875 C 14.875 -17.671875 13.535156 -17.140625 12.484375 -16.078125 C 11.441406 -15.015625 10.921875 -13.671875 10.921875 -12.046875 C 10.921875 -10.390625 11.457031 -9.03125 12.53125 -7.96875 C 13.613281 -6.90625 14.9375 -6.375 16.5 -6.375 C 18.09375 -6.375 19.425781 -6.90625 20.5 -7.96875 Z M 20.5 -7.96875 "/></g></g></g><g fill="#1c74bb" fill-opacity="1"><g transform="translate(151.314028, 326.908681)"><g><path d="M 5.078125 -2.859375 C 2.410156 -5.234375 1.078125 -8.28125 1.078125 -12 C 1.078125 -15.71875 2.46875 -18.769531 5.25 -21.15625 C 8.03125 -23.550781 11.46875 -24.75 15.5625 -24.75 C 19.59375 -24.75 22.988281 -23.546875 25.75 -21.140625 C 28.519531 -18.734375 29.90625 -15.6875 29.90625 -12 C 29.90625 -8.3125 28.550781 -5.269531 25.84375 -2.875 C 23.144531 -0.488281 19.71875 0.703125 15.5625 0.703125 C 11.25 0.703125 7.753906 -0.484375 5.078125 -2.859375 Z M 11.5 -16.078125 C 10.425781 -15.015625 9.890625 -13.65625 9.890625 -12 C 9.890625 -10.34375 10.40625 -8.988281 11.4375 -7.9375 C 12.46875 -6.894531 13.828125 -6.375 15.515625 -6.375 C 17.140625 -6.375 18.472656 -6.90625 19.515625 -7.96875 C 20.566406 -9.03125 21.09375 -10.375 21.09375 -12 C 21.09375 -13.65625 20.550781 -15.015625 19.46875 -16.078125 C 18.394531 -17.140625 17.078125 -17.671875 15.515625 -17.671875 C 13.921875 -17.671875 12.582031 -17.140625 11.5 -16.078125 Z M 11.5 -16.078125 "/></g></g></g><g fill="#1c74bb" fill-opacity="1"><g transform="translate(189.090276, 326.908681)"><g><path d="M 3.609375 -37.453125 C 4.578125 -38.421875 5.734375 -38.90625 7.078125 -38.90625 C 8.421875 -38.90625 9.578125 -38.421875 10.546875 -37.453125 C 11.515625 -36.484375 12 -35.328125 12 -33.984375 C 12 -32.640625 11.515625 -31.484375 10.546875 -30.515625 C 9.578125 -29.546875 8.421875 -29.0625 7.078125 -29.0625 C 5.734375 -29.0625 4.578125 -29.546875 3.609375 -30.515625 C 2.640625 -31.484375 2.15625 -32.640625 2.15625 -33.984375 C 2.15625 -35.328125 2.640625 -36.484375 3.609375 -37.453125 Z M 2.8125 -24.046875 L 2.8125 0 L 11.109375 0 L 11.109375 -24.046875 Z M 2.8125 -24.046875 "/></g></g></g><g fill="#1c74bb" fill-opacity="1"><g transform="translate(210.041046, 326.908681)"><g><path d="M 2.8125 0 L 2.8125 -24.046875 L 11.109375 -24.046875 L 11.109375 -21.515625 L 11.203125 -21.515625 C 13.359375 -23.671875 15.65625 -24.75 18.09375 -24.75 C 19.28125 -24.75 20.457031 -24.59375 21.625 -24.28125 C 22.800781 -23.96875 23.925781 -23.484375 25 -22.828125 C 26.082031 -22.171875 26.957031 -21.238281 27.625 -20.03125 C 28.300781 -18.832031 28.640625 -17.4375 28.640625 -15.84375 L 28.640625 0 L 20.34375 0 L 20.34375 -13.59375 C 20.34375 -14.84375 19.941406 -15.9375 19.140625 -16.875 C 18.347656 -17.8125 17.3125 -18.28125 16.03125 -18.28125 C 14.78125 -18.28125 13.644531 -17.796875 12.625 -16.828125 C 11.613281 -15.859375 11.109375 -14.78125 11.109375 -13.59375 L 11.109375 0 Z M 2.8125 0 "/></g></g></g><g fill="#1c74bb" fill-opacity="1"><g transform="translate(247.817288, 326.908681)"><g><path d="M 4.21875 -24.046875 L 4.21875 -33 L 12.515625 -33 L 12.515625 -24.046875 L 17.578125 -24.046875 L 17.578125 -17.71875 L 12.515625 -17.71875 L 12.515625 -10.078125 C 12.515625 -7.859375 13.140625 -6.75 14.390625 -6.75 C 14.703125 -6.75 15.03125 -6.8125 15.375 -6.9375 C 15.71875 -7.0625 15.984375 -7.1875 16.171875 -7.3125 L 16.453125 -7.5 L 18.515625 -0.796875 C 16.734375 0.203125 14.703125 0.703125 12.421875 0.703125 C 10.859375 0.703125 9.515625 0.429688 8.390625 -0.109375 C 7.265625 -0.660156 6.410156 -1.394531 5.828125 -2.3125 C 5.253906 -3.238281 4.84375 -4.207031 4.59375 -5.21875 C 4.34375 -6.238281 4.21875 -7.328125 4.21875 -8.484375 L 4.21875 -17.71875 L 0.75 -17.71875 L 0.75 -24.046875 Z M 4.21875 -24.046875 "/></g></g></g><g fill="#1c74bb" fill-opacity="1"><g transform="translate(273.126752, 326.908681)"><g><path d="M 13.265625 -24.75 C 14.640625 -24.75 16 -24.59375 17.34375 -24.28125 C 18.6875 -23.96875 19.6875 -23.65625 20.34375 -23.34375 L 21.328125 -22.875 L 18.609375 -17.4375 C 16.734375 -18.4375 14.953125 -18.9375 13.265625 -18.9375 C 12.328125 -18.9375 11.660156 -18.832031 11.265625 -18.625 C 10.878906 -18.425781 10.6875 -18.046875 10.6875 -17.484375 C 10.6875 -17.359375 10.703125 -17.234375 10.734375 -17.109375 C 10.765625 -16.984375 10.828125 -16.863281 10.921875 -16.75 C 11.015625 -16.644531 11.097656 -16.550781 11.171875 -16.46875 C 11.253906 -16.394531 11.390625 -16.3125 11.578125 -16.21875 C 11.765625 -16.125 11.910156 -16.050781 12.015625 -16 C 12.128906 -15.957031 12.3125 -15.890625 12.5625 -15.796875 C 12.8125 -15.703125 13 -15.628906 13.125 -15.578125 C 13.25 -15.535156 13.457031 -15.46875 13.75 -15.375 C 14.050781 -15.28125 14.28125 -15.21875 14.4375 -15.1875 C 15.40625 -14.90625 16.25 -14.59375 16.96875 -14.25 C 17.6875 -13.90625 18.441406 -13.4375 19.234375 -12.84375 C 20.035156 -12.25 20.65625 -11.5 21.09375 -10.59375 C 21.53125 -9.6875 21.75 -8.65625 21.75 -7.5 C 21.75 -2.03125 17.953125 0.703125 10.359375 0.703125 C 8.640625 0.703125 7.003906 0.4375 5.453125 -0.09375 C 3.910156 -0.625 2.796875 -1.15625 2.109375 -1.6875 L 1.078125 -2.53125 L 4.453125 -8.203125 C 4.703125 -7.984375 5.03125 -7.722656 5.4375 -7.421875 C 5.84375 -7.128906 6.578125 -6.722656 7.640625 -6.203125 C 8.703125 -5.691406 9.625 -5.4375 10.40625 -5.4375 C 12.125 -5.4375 12.984375 -6.015625 12.984375 -7.171875 C 12.984375 -7.703125 12.765625 -8.113281 12.328125 -8.40625 C 11.890625 -8.707031 11.144531 -9.046875 10.09375 -9.421875 C 9.050781 -9.796875 8.234375 -10.140625 7.640625 -10.453125 C 6.140625 -11.234375 4.953125 -12.113281 4.078125 -13.09375 C 3.203125 -14.082031 2.765625 -15.390625 2.765625 -17.015625 C 2.765625 -19.453125 3.707031 -21.347656 5.59375 -22.703125 C 7.488281 -24.066406 10.046875 -24.75 13.265625 -24.75 Z M 13.265625 -24.75 "/></g></g></g><g fill="#18bebc" fill-opacity="1"><g transform="translate(109.805283, 366.801574)"><g><path d="M 3.53125 0 L 0.3125 0 L 8.65625 -20.046875 L 11.90625 -20.046875 L 20.234375 0 L 17.046875 0 L 14.421875 -6.28125 L 6.140625 -6.28125 Z M 7.265625 -8.984375 L 13.28125 -8.984375 L 10.28125 -16.21875 Z M 7.265625 -8.984375 "/></g></g></g><g fill="#18bebc" fill-opacity="1"><g transform="translate(137.72799, 366.801574)"><g><path d="M 11.03125 -2.453125 C 12.113281 -2.453125 13.125 -2.71875 14.0625 -3.25 C 15 -3.78125 15.785156 -4.476562 16.421875 -5.34375 L 18.484375 -3.359375 C 17.578125 -2.285156 16.476562 -1.410156 15.1875 -0.734375 C 13.894531 -0.0546875 12.507812 0.28125 11.03125 0.28125 C 9.664062 0.28125 8.378906 0.0078125 7.171875 -0.53125 C 5.972656 -1.082031 4.929688 -1.820312 4.046875 -2.75 C 3.160156 -3.6875 2.457031 -4.78125 1.9375 -6.03125 C 1.414062 -7.289062 1.15625 -8.613281 1.15625 -10 C 1.15625 -11.414062 1.414062 -12.742188 1.9375 -13.984375 C 2.457031 -15.234375 3.160156 -16.320312 4.046875 -17.25 C 4.929688 -18.1875 5.972656 -18.925781 7.171875 -19.46875 C 8.378906 -20.019531 9.664062 -20.296875 11.03125 -20.296875 C 12.289062 -20.296875 13.476562 -20.046875 14.59375 -19.546875 C 15.71875 -19.046875 16.722656 -18.390625 17.609375 -17.578125 L 15.859375 -15.34375 C 15.234375 -16.007812 14.503906 -16.550781 13.671875 -16.96875 C 12.847656 -17.394531 11.96875 -17.609375 11.03125 -17.609375 C 10.0625 -17.609375 9.15625 -17.40625 8.3125 -17 C 7.476562 -16.59375 6.75 -16.039062 6.125 -15.34375 C 5.507812 -14.644531 5.015625 -13.835938 4.640625 -12.921875 C 4.273438 -12.015625 4.09375 -11.039062 4.09375 -10 C 4.09375 -8.96875 4.273438 -7.992188 4.640625 -7.078125 C 5.015625 -6.160156 5.507812 -5.359375 6.125 -4.671875 C 6.75 -3.984375 7.476562 -3.441406 8.3125 -3.046875 C 9.15625 -2.648438 10.0625 -2.453125 11.03125 -2.453125 Z M 11.03125 -2.453125 "/></g></g></g><g fill="#18bebc" fill-opacity="1"><g transform="translate(164.350943, 366.801574)"><g><path d="M 3.53125 0 L 0.3125 0 L 8.65625 -20.046875 L 11.90625 -20.046875 L 20.234375 0 L 17.046875 0 L 14.421875 -6.28125 L 6.140625 -6.28125 Z M 7.265625 -8.984375 L 13.28125 -8.984375 L 10.28125 -16.21875 Z M 7.265625 -8.984375 "/></g></g></g><g fill="#18bebc" fill-opacity="1"><g transform="translate(192.27365, 366.801574)"><g><path d="M 1.703125 0 L 1.703125 -20.046875 L 8.8125 -20.046875 C 10.269531 -20.046875 11.550781 -19.78125 12.65625 -19.25 C 13.769531 -18.71875 14.695312 -18 15.4375 -17.09375 C 16.1875 -16.195312 16.753906 -15.132812 17.140625 -13.90625 C 17.523438 -12.675781 17.71875 -11.375 17.71875 -10 C 17.71875 -8.613281 17.515625 -7.3125 17.109375 -6.09375 C 16.703125 -4.875 16.140625 -3.8125 15.421875 -2.90625 C 14.710938 -2 13.867188 -1.285156 12.890625 -0.765625 C 11.910156 -0.253906 10.851562 0 9.71875 0 Z M 8.703125 -2.734375 C 9.773438 -2.734375 10.6875 -2.929688 11.4375 -3.328125 C 12.195312 -3.722656 12.820312 -4.25 13.3125 -4.90625 C 13.800781 -5.570312 14.15625 -6.347656 14.375 -7.234375 C 14.601562 -8.117188 14.71875 -9.039062 14.71875 -10 C 14.71875 -10.96875 14.601562 -11.898438 14.375 -12.796875 C 14.15625 -13.691406 13.804688 -14.476562 13.328125 -15.15625 C 12.847656 -15.832031 12.222656 -16.375 11.453125 -16.78125 C 10.691406 -17.1875 9.773438 -17.390625 8.703125 -17.390625 L 4.65625 -17.390625 L 4.65625 -2.734375 Z M 8.703125 -2.734375 "/></g></g></g><g fill="#18bebc" fill-opacity="1"><g transform="translate(218.670557, 366.801574)"><g><path d="M 13.828125 -20.046875 L 13.828125 -17.390625 L 4.515625 -17.390625 L 4.515625 -11.921875 L 12.796875 -11.921875 L 12.796875 -9.1875 L 4.515625 -9.1875 L 4.515625 -2.734375 L 13.828125 -2.734375 L 13.828125 0 L 1.578125 0 L 1.578125 -20.046875 Z M 13.828125 -20.046875 "/></g></g></g><g fill="#18bebc" fill-opacity="1"><g transform="translate(241.422547, 366.801574)"><g><path d="M 18.65625 -20.046875 L 21.625 -20.046875 L 21.625 0 L 18.6875 0 L 18.6875 -15.375 L 12.828125 -7.328125 L 10.546875 -7.328125 L 4.65625 -15.375 L 4.65625 0 L 1.703125 0 L 1.703125 -20.046875 L 4.65625 -20.046875 L 11.671875 -10.40625 Z M 18.65625 -20.046875 "/></g></g></g><g fill="#18bebc" fill-opacity="1"><g transform="translate(271.972984, 366.801574)"><g><path d="M 7.328125 -9.390625 L 0.25 -20.046875 L 3.78125 -20.046875 L 8.796875 -12.515625 L 13.796875 -20.046875 L 17.359375 -20.046875 L 10.28125 -9.390625 L 10.28125 0 L 7.328125 0 Z M 7.328125 -9.390625 "/></g></g></g></svg>